<svg width="25" height="25" viewBox="0 0 25 25" fill="none" xmlns="http://www.w3.org/2000/svg">
<path d="M14.0528 2.57609L14.0518 2.57701C13.1733 3.39014 11.8267 3.39014 10.9482 2.57701L10.9477 2.5766C9.86447 1.5727 8.41846 0.972558 6.83464 1.00097L14.0528 2.57609ZM14.0528 2.57609C15.1354 1.57135 16.5809 0.972547 18.1654 1.00097L14.0528 2.57609ZM1.00036 6.9788L1.00036 6.97939C0.983969 8.52057 1.53572 9.92643 2.45259 11.0011L2.45334 11.002C3.18613 11.8629 3.1878 13.1378 2.45259 13.9989C1.53626 15.0729 0.985546 16.4788 1.00036 18.0212L1.00036 6.9788ZM1.00036 6.9788C1.03314 3.71618 3.65061 1.05949 6.83431 1.00098L1.00036 6.9788ZM10.9477 22.4234L10.9482 22.423C11.8267 21.6099 13.1733 21.6099 14.0518 22.423L14.0523 22.4234C15.1355 23.4273 16.5815 24.0274 18.1654 23.999C21.3488 23.9407 23.9654 21.2842 23.9996 18.0207L23.9996 18.0206C24.016 16.4794 23.4643 15.0736 22.5474 13.9989L22.5467 13.998C21.8139 13.1371 21.8122 11.8622 22.5474 11.0011C23.4637 9.92706 24.0145 8.52118 23.9996 6.9788L10.9477 22.4234ZM10.9477 22.4234C9.86447 23.4273 8.41846 24.0274 6.83464 23.999M10.9477 22.4234L6.83464 23.999M6.83464 23.999C3.65091 23.9407 1.03334 21.2841 1.00037 18.0216L6.83464 23.999ZM18.1657 1.00098C21.3493 1.05948 23.9667 3.71597 23.9996 6.97842L18.1657 1.00098Z" stroke="black" stroke-width="2"/>
</svg>
