<svg width="399" height="396" viewBox="0 0 399 396" fill="none" xmlns="http://www.w3.org/2000/svg">
<path d="M219.492 12.4235L237.861 23.7873C245.516 28.5231 254.307 31.1045 263.307 31.2591L284.904 31.6302C299.307 31.8776 312.332 40.2483 318.541 53.2473L327.85 72.7381C331.729 80.8606 337.73 87.7853 345.217 92.7812L363.185 104.769C375.168 112.765 381.6 126.848 379.795 141.14L377.089 162.57C375.961 171.5 377.265 180.57 380.863 188.821L389.497 208.62C395.255 221.824 393.052 237.15 383.807 248.197L369.944 264.762C364.168 271.665 360.361 279.999 358.927 288.886L355.487 310.21C353.192 324.431 343.053 336.132 329.302 340.428L308.685 346.868C300.093 349.552 292.385 354.506 286.374 361.207L271.951 377.285C262.332 388.008 247.476 392.37 233.587 388.55L212.76 382.822C204.081 380.434 194.919 380.434 186.24 382.822L165.413 388.55C151.524 392.37 136.668 388.008 127.049 377.285L112.626 361.207C106.615 354.506 98.9068 349.552 90.3148 346.868L69.6976 340.428C55.9474 336.132 45.8082 324.431 43.5134 310.21L40.0727 288.886C38.6388 279.999 34.8325 271.665 29.0555 264.762L15.1932 248.197C5.94802 237.15 3.74457 221.824 9.50288 208.62L18.1369 188.821C21.735 180.57 23.039 171.5 21.9112 162.57L19.2049 141.14C17.4001 126.848 23.8319 112.765 35.8151 104.769L53.7826 92.7812C61.2704 87.7853 67.2706 80.8606 71.15 72.738L80.4591 53.2473C86.6675 40.2483 99.6926 31.8776 114.096 31.6302L135.693 31.2591C144.693 31.1045 153.484 28.5231 161.139 23.7873L179.508 12.4235C191.759 4.84462 207.241 4.84463 219.492 12.4235Z" stroke="#EAB6F2" stroke-width="12"/>
</svg>
