<svg width="607" height="602" viewBox="0 0 607 602" fill="none" xmlns="http://www.w3.org/2000/svg">
<path opacity="0.3" d="M323.492 12.4235L367.952 39.9287C375.607 44.6645 384.399 47.2459 393.399 47.4005L445.671 48.2986C460.075 48.546 473.1 56.9167 479.308 69.9157L501.84 117.091C505.719 125.214 511.72 132.139 519.207 137.135L562.696 166.151C574.679 174.146 581.111 188.23 579.306 202.522L572.756 254.39C571.628 263.321 572.932 272.39 576.531 280.641L597.428 328.563C603.187 341.767 600.983 357.093 591.738 368.14L558.186 408.233C552.409 415.136 548.602 423.471 547.168 432.357L538.84 483.97C536.546 498.192 526.406 509.893 512.656 514.188L462.754 529.777C454.162 532.461 446.454 537.414 440.443 544.115L405.533 583.032C395.914 593.755 381.058 598.117 367.169 594.297L316.76 580.432C308.081 578.044 298.919 578.044 290.24 580.432L239.831 594.297C225.942 598.117 211.086 593.755 201.467 583.032L166.557 544.115C160.546 537.414 152.838 532.461 144.246 529.777L94.344 514.188C80.5937 509.893 70.4545 498.192 68.1597 483.97L59.8317 432.357C58.3978 423.471 54.5915 415.136 48.8145 408.233L15.262 368.14C6.01676 357.093 3.81332 341.767 9.57162 328.563L30.4695 280.641C34.0676 272.39 35.3716 263.321 34.2438 254.39L27.6936 202.522C25.8887 188.23 32.3206 174.146 44.3037 166.151L87.7926 137.135C95.2804 132.139 101.281 125.214 105.16 117.091L127.692 69.9158C133.9 56.9167 146.925 48.546 161.329 48.2986L213.601 47.4005C222.601 47.2459 231.393 44.6645 239.048 39.9287L283.508 12.4235C295.759 4.84462 311.241 4.84463 323.492 12.4235Z" stroke="#EAB6F2" stroke-width="12"/>
</svg>
