<svg width="56" height="48" viewBox="0 0 56 48" fill="none" xmlns="http://www.w3.org/2000/svg">
<path d="M52.6094 38.2777H18.057C15.9032 38.2777 13.8459 39.1296 12.3189 40.6565L5.88977 47.0857C3.93691 49.0386 0.59375 47.6563 0.59375 44.8918V6.26845C0.601786 2.80473 3.40651 0 6.87022 0H52.6174C55.3819 0 56.7642 3.34317 54.8113 5.29604L44.2113 15.872C42.4031 17.6722 42.4031 20.6055 44.2113 22.4057L54.8113 32.9817C56.7722 34.9346 55.3819 38.2777 52.6174 38.2777H52.6094Z" fill="#FF4800"/>
<path d="M17.1538 10.5898H20.657L27.2571 28.2391H23.4806L22.2405 24.6588H15.3742L14.134 28.2391H10.5818L17.1538 10.5898ZM16.3761 21.8142H21.2456L18.8143 14.8498L16.3831 21.8142H16.3761Z" fill="white"/>
<path d="M34.0763 28.2391H30.5941V10.5898H34.0763V28.2391Z" fill="white"/>
</svg>
